<svg xmlns="http://www.w3.org/2000/svg" width="853.897" height="853.897" viewBox="0 0 627.98 627.98" shape-rendering="geometricPrecision" text-rendering="geometricPrecision" image-rendering="optimizeQuality" fill-rule="evenodd" clip-rule="evenodd">
  <circle cx="313.99" cy="313.99" r="313.99" fill="#ffa70a"/>
  <path d="M225.45 320.97h110.89c47.55-.02 95.66.34 143.02-.06l.03-16.18c0-4.6.99-16.04-1.34-18.79-8.22-9.71-31.29-33.13-42.64-34.65-9.86-1.32-33.29 18.13-41.8 24.7-2.38 1.84-10.31 9.02-12.08 9.77-3.43-2.93-8.66-8.62-14.78-13.86-4.04-3.45-11.4-9.14-17.64-11.02-5.75-1.74-6.99-.19-10.62 2.27l-25.46 17.33c-1.79-.86-3.5-3.23-4.75-4.51a54.894 54.894 0 00-4.58-4.16c-14.28-11.6-23.06-11.28-37.8-3.05-7.92 4.42-14.53 9.15-21.52 13.97l-15.16 11.57c-1.82 1.48-3.77 2.18-3.77 5.1v16.03l.01 5.55zm210.06 175l-.03-52.49-261.71-.05c-1.23-4.77.52-34.58-.4-43.29-8.34-.85-29.92 1.26-36.01-.41l.01-179.55 35.66.1c.6-2.82.55-19.7-.09-22.5l-57.87.12.12 298.17c106.7-.39 213.61-.56 320.32-.11zM192.63 301.95l.01 16.34-.03 111.49c106.88-.09 213.85 1.46 320.2.27l.06-297.84-320.2-.1c-.88 28.03-.07 56.76-.07 84.68 0 28.15-.67 57.11.04 85.16zm56.57-95.85c2.02 17.71 18.83 32.97 39.45 30.46 18.01-2.19 33.1-18.67 30.49-39.64-2.21-17.76-18.74-32.88-39.41-30.33-17.87 2.21-32.92 18.56-30.53 39.51zm-34.58-37.89l.04-14.01 275.21.04c1.17.82.9-.25.82 5.21-.02 55.63-.1 115.81-.17 174.84l-275.87-.21c-1.16-4.26-.26-34.56-.27-41.51-.08-40.71-.48-84.22.24-124.38z" fill="#f0f7fd"/>
</svg>
